<?xml version="1.0" encoding="UTF-8"?>
<svg id="Layer_1" xmlns="http://www.w3.org/2000/svg" version="1.1" viewBox="0 0 304 64">
  <!-- Generator: Adobe Illustrator 30.0.0, SVG Export Plug-In . SVG Version: 2.1.1 Build 123)  -->
  <defs>
    <style>
      .st0 {
        fill: #00b140;
      }
    </style>
  </defs>
  <path class="st0" d="M61.55,0c-6.17,0-11.28,4.6-12.27,10.63-.99-6.03-6.1-10.63-12.27-10.63s-11.28,4.6-12.27,10.63C23.74,4.6,18.63,0,12.46,0,5.58,0,0,5.71,0,12.76s5.58,12.76,12.46,12.76c6.17,0,11.28-4.6,12.27-10.63.99,6.03,6.1,10.63,12.27,10.63s11.28-4.6,12.27-10.63c.99,6.03,6.1,10.63,12.27,10.63,6.88,0,12.46-5.71,12.46-12.76S68.43,0,61.55,0Z"/>
  <path class="st0" d="M61.55,38.34c-6.17,0-11.28,4.6-12.27,10.63-.99-6.03-6.1-10.63-12.27-10.63s-11.28,4.6-12.27,10.63c-.99-6.03-6.1-10.63-12.27-10.63-6.88,0-12.46,5.71-12.46,12.76s5.58,12.76,12.46,12.76c6.17,0,11.28-4.6,12.27-10.63.99,6.03,6.1,10.63,12.27,10.63s11.28-4.6,12.27-10.63c.99,6.03,6.1,10.63,12.27,10.63,6.88,0,12.46-5.71,12.46-12.76s-5.58-12.76-12.46-12.76Z"/>
  <path class="st0" d="M147.27,13.73c-9.09,0-16.49,7.57-16.49,16.89s7.4,16.89,16.49,16.89c4.61,0,8.78-1.96,11.78-5.09v16.51h4.71v-28.31c0-9.31-7.4-16.89-16.49-16.89ZM147.27,42.68c-6.5,0-11.78-5.41-11.78-12.06s5.29-12.06,11.78-12.06,11.78,5.41,11.78,12.06-5.29,12.06-11.78,12.06Z"/>
  <path class="st0" d="M219.88,13.73c-9.09,0-16.49,7.57-16.49,16.89s7.4,16.89,16.49,16.89c4.61,0,8.79-1.96,11.78-5.09v5.09h4.71v-16.89c0-9.31-7.4-16.89-16.49-16.89ZM219.88,42.68c-6.5,0-11.78-5.41-11.78-12.06s5.29-12.06,11.78-12.06,11.78,5.41,11.78,12.06-5.28,12.06-11.78,12.06Z"/>
  <path class="st0" d="M111.29,13.73c-9.09,0-16.49,7.57-16.49,16.89s7.4,16.89,16.49,16.89c4.4,0,8.55-1.76,11.66-4.95l1.67-1.71-3.33-3.41-1.67,1.71c-2.22,2.28-5.18,3.53-8.33,3.53-5.69,0-10.45-4.15-11.55-9.65h28.04v-2.41c0-9.31-7.4-16.89-16.49-16.89ZM99.74,28.2c1.1-5.5,5.86-9.65,11.55-9.65s10.45,4.15,11.54,9.65h-23.09Z"/>
  <path class="st0" d="M246.89,4.93h-4.71v42.57h4.71V4.93Z"/>
  <path class="st0" d="M195.32,30.61c0,6.65-5.29,12.06-11.78,12.06s-11.78-5.41-11.78-12.06v-15.53h-4.71v15.53c0,9.31,7.4,16.89,16.49,16.89s16.49-7.57,16.49-16.89v-15.53h-4.71v15.53Z"/>
  <path class="st0" d="M275.98,14.49c-9.14,0-16.58,7.44-16.58,16.58s7.44,16.58,16.58,16.58c4.64,0,8.83-1.92,11.85-5v5h4.74v-16.58c0-9.14-7.44-16.58-16.58-16.58ZM275.98,42.92c-6.53,0-11.85-5.31-11.85-11.85s5.32-11.85,11.85-11.85,11.85,5.31,11.85,11.85-5.32,11.85-11.85,11.85Z"/>
  <path class="st0" d="M302.46,15.93h-4.31v31.58h4.31V15.93Z"/>
  <path class="st0" d="M300.3,13.06c-.8,0-1.48-.28-2.03-.84-.55-.56-.83-1.24-.83-2.03s.28-1.48.83-2.03c.55-.56,1.23-.84,2.03-.84s1.5.28,2.05.84c.55.55.83,1.22.83,2.03s-.28,1.46-.83,2.03c-.55.56-1.24.84-2.05.84Z"/>
</svg>